<?xml version="1.0" encoding="UTF-8" standalone="no"?>
<svg
   xmlns:dc="http://purl.org/dc/elements/1.1/"
   xmlns:cc="http://creativecommons.org/ns#"
   xmlns:rdf="http://www.w3.org/1999/02/22-rdf-syntax-ns#"
   xmlns:svg="http://www.w3.org/2000/svg"
   xmlns="http://www.w3.org/2000/svg"
   xmlns:xlink="http://www.w3.org/1999/xlink"
   xmlns:sodipodi="http://sodipodi.sourceforge.net/DTD/sodipodi-0.dtd"
   xmlns:inkscape="http://www.inkscape.org/namespaces/inkscape"
   height="217"
   width="1440"
   version="1.1"
   id="svg14"
   sodipodi:docname="footer.svg"
   inkscape:version="0.92.4 (5da689c313, 2019-01-14)">
  <metadata
     id="metadata18">
    <rdf:RDF>
      <cc:Work
         rdf:about="">
        <dc:format>image/svg+xml</dc:format>
        <dc:type
           rdf:resource="http://purl.org/dc/dcmitype/StillImage" />
      </cc:Work>
    </rdf:RDF>
  </metadata>
  <sodipodi:namedview
     pagecolor="#ffffff"
     bordercolor="#666666"
     borderopacity="1"
     objecttolerance="10"
     gridtolerance="10"
     guidetolerance="10"
     inkscape:pageopacity="0"
     inkscape:pageshadow="2"
     inkscape:window-width="1920"
     inkscape:window-height="1028"
     id="namedview16"
     showgrid="false"
     inkscape:zoom="0.56372124"
     inkscape:cx="829.5914"
     inkscape:cy="-30.614796"
     inkscape:window-x="-8"
     inkscape:window-y="-8"
     inkscape:window-maximized="1"
     inkscape:current-layer="svg14" />
  <defs
     id="defs6">
    <path
       id="a"
       d="m261.7 286.682c421.477 0 1488.977 176.078 1488.977 39.234s478.754-248.043 57.278-248.043c-198.746 0-468.566 3.555-719.957-11.23-281.727-16.567-546.098-39.416-743.021-14.205-372.642 47.707-504.753 234.245-83.277 234.245z" />
    <mask
       id="b"
       fill="#fff">
      <use
         fill="#fff"
         fill-rule="evenodd"
         xlink:href="#a"
         id="use3" />
    </mask>
  </defs>
  <use
     height="100%"
     width="100%"
     y="0"
     x="0"
     style="opacity:0.5;fill:#037dc3;fill-rule:evenodd;fill-opacity:0.78743958"
     id="use8"
     xlink:href="#a"
     transform="translate(-285,-41)" />
  <path
     style="opacity:0.5;fill:#037dc3;fill-rule:evenodd;fill-opacity:1"
     inkscape:connector-curvature="0"
     id="path10"
     mask="url(#b)"
     d="m 445.7,387.682 c 421.477,0 972.745,179.787 972.745,42.943 0,-136.844 579.941,-255.246 158.465,-255.246 -421.476,0 -706.969,-146.996 -706.969,-10.152 0,136.843 -845.717,222.455 -424.24,222.455 z"
     transform="translate(-285,-41)" />
</svg>
